# xmcd
#
# Track frame offsets:
#       150
#       15601
#       33810
#       46806
#       65811
#       86747
#       103016
#       122092
#       146837
#       170627
#       191924
#       211212
#       230829
#       251289
#
# Disc length: 3547 seconds
#
# Revision: 0
# Processed by: cddbd v1.5.2PL0 Copyright (c) Steve Scherf et al.
# Submitted via: WaveLab 6.10
#
DISCID=c90dd90e
DTITLE=Opfekompott - Koid serviert
DYEAR=2008
DGENRE=
TTITLE0=Du brauchst nur bei mir sein
TTITLE1=Es rennt net guat
TTITLE2=Narrische Vroni
TTITLE3=Es treibt ois aus
TTITLE4=Jaga
TTITLE5=Heast geh ham
TTITLE6=Olla hechste Zeit
TTITLE7=Wettl
TTITLE8=Wirtshaus
TTITLE9=Waun nur wer anruaft
TTITLE10=Olle 2
TTITLE11=Des Haus
TTITLE12=Heit gibts ka schlofn
TTITLE13=Bleibt nix mehr zum Sogn
EXTD=
EXTT0=
EXTT1=
EXTT2=
EXTT3=
EXTT4=
EXTT5=
EXTT6=
EXTT7=
EXTT8=
EXTT9=
EXTT10=
EXTT11=
EXTT12=
EXTT13=
PLAYORDER=
